<svg width="48" height="48" viewBox="0 0 48 48" fill="none" xmlns="http://www.w3.org/2000/svg">
<path d="M24 42C35.0457 42 44 33.0457 44 22C44 10.9543 35.0457 2 24 2C12.9543 2 4 10.9543 4 22C4 33.0457 12.9543 42 24 42Z" fill="#7DC636"/>
<path d="M36.9999 22C36.9999 14.3 30.3999 8.2 22.4999 9.1C16.4999 9.8 11.6999 14.6 11.0999 20.6C10.5999 25.2 12.4999 29.3 15.6999 31.9C17.0999 33.1 17.9999 34.8 17.9999 36.7V37H29.9999V36.9C29.9999 35.1 30.7999 33.3 32.1999 32.1C35.0999 29.7 36.9999 26.1 36.9999 22Z" fill="#FEFAE0"/>
<path d="M30.5996 20.2L27.5996 18.2C27.2996 18 26.7996 18 26.4996 18.2L23.9996 19.8L21.5996 18.2C21.2996 18 20.7996 18 20.4996 18.2L17.4996 20.2C17.2996 20.4 17.0996 20.6 17.0996 20.9C17.0996 21.2 17.0996 21.5 17.2996 21.7L21.0996 26.4V37H23.0996V26C23.0996 25.8 22.9996 25.6 22.8996 25.4L19.5996 21.3L21.0996 20.3L23.4996 21.9C23.7996 22.1 24.2996 22.1 24.5996 21.9L26.9996 20.3L28.4996 21.3L25.1996 25.4C25.0996 25.6 24.9996 25.8 24.9996 26V37H26.9996V26.4L30.7996 21.7C30.9996 21.5 31.0996 21.2 30.9996 20.9C30.8996 20.6 30.7996 20.3 30.5996 20.2Z" fill="#7DC636"/>
<path d="M24 47C25.6569 47 27 45.6569 27 44C27 42.3431 25.6569 41 24 41C22.3431 41 21 42.3431 21 44C21 45.6569 22.3431 47 24 47Z" fill="#5C6BC0"/>
<path d="M26 45H22C19.8 45 18 43.2 18 41V36H30V41C30 43.2 28.2 45 26 45Z" fill="#9FA8DA"/>
<path d="M30 41L18.4 42.6C18.7 43.3 19.3 44 20 44.4L29.4 43.1C29.8 42.5 30 41.8 30 41ZM18 38.7V40.7L30 39V37L18 38.7Z" fill="#5C6BC0"/>
</svg>
