<svg width="28" height="28" viewBox="0 0 28 28" fill="none" xmlns="http://www.w3.org/2000/svg">
<circle cx="14" cy="14" r="13" stroke="#EF3B3B" stroke-width="2"/>
<path fill-rule="evenodd" clip-rule="evenodd" d="M15.8857 14.0002L19.1764 10.7094C19.4423 10.4436 19.4439 10.0159 19.1811 9.75311L18.2471 8.81913C17.9731 8.5451 17.5562 8.55844 17.2908 8.82381L14 12.1145L10.7093 8.82381C10.4434 8.55794 10.0158 8.55634 9.75299 8.81913L8.81901 9.75311C8.54498 10.0271 8.55832 10.4441 8.82369 10.7094L12.1144 14.0002L8.82369 17.2909C8.55782 17.5568 8.55622 17.9844 8.81901 18.2472L9.75299 19.1812C10.027 19.4552 10.4439 19.4419 10.7093 19.1765L14 15.8858L17.2908 19.1765C17.5566 19.4424 17.9843 19.444 18.2471 19.1812L19.1811 18.2472C19.4551 17.9732 19.4418 17.5563 19.1764 17.2909L15.8857 14.0002Z" fill="#EF3B3B"/>
</svg>
