<svg width="26" height="24" viewBox="0 0 26 24" fill="none" xmlns="http://www.w3.org/2000/svg">
<path d="M13 0.5C19.7667 0.5 25.2512 4.77467 25.2512 10.0492C25.2512 15.3225 19.7667 19.5972 13.0012 19.5972C12.3275 19.5975 11.6545 19.5546 10.9863 19.4688L5.84367 22.8323C5.25917 23.1415 5.05267 23.1077 5.293 22.3505L6.33367 18.0595C2.97367 16.3562 0.751167 13.4045 0.751167 10.0492C0.751167 4.77583 6.2345 0.5 13.0012 0.5M19.8938 9.90333L21.6088 8.242C21.7078 8.13923 21.763 8.00206 21.7628 7.85939C21.7627 7.71671 21.7071 7.57968 21.6079 7.47714C21.5087 7.37461 21.3736 7.31458 21.231 7.30971C21.0884 7.30483 20.9495 7.35548 20.8435 7.451L18.5942 9.628V7.829C18.5942 7.68295 18.5361 7.54289 18.4329 7.43962C18.3296 7.33635 18.1895 7.27833 18.0435 7.27833C17.8975 7.27833 17.7574 7.33635 17.6541 7.43962C17.5508 7.54289 17.4928 7.68295 17.4928 7.829V10.8122C17.4722 10.8973 17.4722 10.9861 17.4928 11.0712V12.75C17.4928 12.896 17.5508 13.0361 17.6541 13.1394C17.7574 13.2427 17.8975 13.3007 18.0435 13.3007C18.1895 13.3007 18.3296 13.2427 18.4329 13.1394C18.5361 13.0361 18.5942 12.896 18.5942 12.75V11.1598L19.0923 10.678L20.7583 13.0498C20.7999 13.109 20.8528 13.1595 20.9139 13.1983C20.975 13.2371 21.0431 13.2634 21.1144 13.2759C21.1857 13.2884 21.2587 13.2867 21.3293 13.2709C21.4 13.2551 21.4668 13.2256 21.526 13.184C21.5852 13.1424 21.6357 13.0896 21.6744 13.0285C21.7132 12.9674 21.7396 12.8992 21.7521 12.828C21.7645 12.7567 21.7628 12.6836 21.7471 12.613C21.7313 12.5424 21.7018 12.4755 21.6602 12.4163L19.8938 9.90333ZM16.4428 12.148H14.7395V7.8465C14.733 7.70499 14.6722 7.57144 14.5697 7.4736C14.4673 7.37577 14.3311 7.32117 14.1894 7.32117C14.0478 7.32117 13.9115 7.37577 13.8091 7.4736C13.7067 7.57144 13.6459 7.70499 13.6393 7.8465V12.6987C13.6393 13.002 13.8843 13.2493 14.1888 13.2493H16.4428C16.5889 13.2493 16.7289 13.1913 16.8322 13.088C16.9355 12.9848 16.9935 12.8447 16.9935 12.6987C16.9935 12.5526 16.9355 12.4126 16.8322 12.3093C16.7289 12.206 16.5889 12.148 16.4428 12.148ZM9.60967 10.8752L10.4217 8.8825L11.166 10.874L9.60967 10.8752ZM12.5532 11.4433L12.5555 11.4247C12.5552 11.2859 12.5023 11.1525 12.4073 11.0513L11.187 7.78467C11.1358 7.629 11.0384 7.49264 10.9077 7.39383C10.777 7.29501 10.6192 7.23844 10.4555 7.23167C10.2906 7.23094 10.1293 7.28045 9.99326 7.37361C9.85717 7.46677 9.75267 7.59916 9.69367 7.75317L7.75467 12.5073C7.69944 12.6425 7.70018 12.7942 7.75674 12.9288C7.8133 13.0635 7.92103 13.1702 8.05625 13.2254C8.19147 13.2806 8.34309 13.2799 8.47775 13.2233C8.61242 13.1668 8.7191 13.059 8.77433 12.9238L9.16167 11.9753H11.5767L11.9243 12.9087C11.948 12.9784 11.9855 13.0427 12.0345 13.0977C12.0836 13.1528 12.1431 13.1974 12.2097 13.229C12.2763 13.2605 12.3485 13.2784 12.4221 13.2816C12.4957 13.2847 12.5692 13.2731 12.6383 13.2473C12.7073 13.2216 12.7705 13.1822 12.824 13.1316C12.8776 13.0809 12.9204 13.0201 12.95 12.9526C12.9796 12.8851 12.9953 12.8124 12.9963 12.7387C12.9973 12.665 12.9835 12.5919 12.9557 12.5237L12.5532 11.4433ZM8.67633 7.85233C8.67633 7.70649 8.61848 7.5666 8.51546 7.46336C8.41244 7.36013 8.27268 7.30198 8.12683 7.30167H4.341C4.19495 7.30167 4.05489 7.35968 3.95162 7.46295C3.84835 7.56622 3.79033 7.70629 3.79033 7.85233C3.79033 7.99838 3.84835 8.13844 3.95162 8.24171C4.05489 8.34498 4.19495 8.403 4.341 8.403H5.69433V12.7617C5.69433 12.9077 5.75235 13.0478 5.85562 13.151C5.95889 13.2543 6.09895 13.3123 6.245 13.3123C6.39105 13.3123 6.53111 13.2543 6.63438 13.151C6.73765 13.0478 6.79567 12.9077 6.79567 12.7617V8.403H8.12567C8.27171 8.403 8.41178 8.34498 8.51505 8.24171C8.61832 8.13844 8.67633 7.99838 8.67633 7.85233Z" fill="black"/>
</svg>
