<svg width="28" height="28" viewBox="0 0 28 28" fill="none" xmlns="http://www.w3.org/2000/svg">
<g clip-path="url(#clip0_415_837)">
<path d="M28 14C28 15.8958 27.6293 17.7066 26.888 19.4323C26.1467 21.158 25.1502 22.6467 23.8984 23.8984C22.6467 25.1502 21.158 26.1467 19.4323 26.888C17.7066 27.6293 15.8958 28 14 28C11.9097 28 9.92274 27.5595 8.03906 26.6784C6.15538 25.7973 4.55122 24.5547 3.22656 22.9505C3.14149 22.829 3.102 22.6923 3.10807 22.5404C3.11415 22.3885 3.1658 22.2639 3.26302 22.1667L5.76042 19.651C5.88194 19.5417 6.03385 19.487 6.21615 19.487C6.41059 19.5113 6.55035 19.5842 6.63542 19.7057C7.52257 20.8602 8.61024 21.7535 9.89844 22.3854C11.1866 23.0174 12.5538 23.3333 14 23.3333C15.2639 23.3333 16.4701 23.0872 17.6185 22.5951C18.7669 22.1029 19.7604 21.4375 20.599 20.599C21.4375 19.7604 22.1029 18.7669 22.5951 17.6185C23.0872 16.4701 23.3333 15.2639 23.3333 14C23.3333 12.7361 23.0872 11.5299 22.5951 10.3815C22.1029 9.23307 21.4375 8.23958 20.599 7.40104C19.7604 6.5625 18.7669 5.89714 17.6185 5.40495C16.4701 4.91276 15.2639 4.66667 14 4.66667C12.809 4.66667 11.6667 4.88238 10.5729 5.3138C9.47917 5.74523 8.50694 6.36198 7.65625 7.16406L10.1536 9.67969C10.5304 10.0443 10.6155 10.4635 10.4089 10.9375C10.2023 11.4236 9.84375 11.6667 9.33333 11.6667H1.16667C0.850694 11.6667 0.577257 11.5512 0.346354 11.3203C0.115451 11.0894 0 10.816 0 10.5V2.33333C0 1.82292 0.243056 1.46441 0.729167 1.25781C1.20312 1.05122 1.6224 1.13628 1.98698 1.51302L4.35677 3.86458C5.65712 2.63715 7.1428 1.6862 8.8138 1.01172C10.4848 0.33724 12.2135 0 14 0C15.8958 0 17.7066 0.37066 19.4323 1.11198C21.158 1.8533 22.6467 2.84983 23.8984 4.10156C25.1502 5.3533 26.1467 6.84201 26.888 8.56771C27.6293 10.2934 28 12.1042 28 14Z" fill="#666666"/>
</g>
<defs>
<clipPath id="clip0_415_837">
<rect width="28" height="28" fill="white"/>
</clipPath>
</defs>
</svg>
