<svg width="16" height="16" viewBox="0 0 16 16" fill="none" xmlns="http://www.w3.org/2000/svg">
<path fill-rule="evenodd" clip-rule="evenodd" d="M9.88578 8.00016L13.1765 4.70943C13.4424 4.44356 13.444 4.0159 13.1812 3.75311L12.2472 2.81913C11.9732 2.5451 11.5563 2.55844 11.2909 2.82381L8.00017 6.11455L4.70943 2.82381C4.44356 2.55794 4.0159 2.55634 3.75311 2.81913L2.81913 3.75311C2.5451 4.02713 2.55844 4.44406 2.82381 4.70943L6.11455 8.00016L2.82381 11.2909C2.55794 11.5568 2.55634 11.9844 2.81913 12.2472L3.75311 13.1812C4.02713 13.4552 4.44406 13.4419 4.70943 13.1765L8.00017 9.88578L11.2909 13.1765C11.5568 13.4424 11.9844 13.444 12.2472 13.1812L13.1812 12.2472C13.4552 11.9732 13.4419 11.5563 13.1765 11.2909L9.88578 8.00016Z" fill="#9C9C9C"/>
</svg>
