<svg width="36" height="36" viewBox="0 0 36 36" fill="none" xmlns="http://www.w3.org/2000/svg">
<path d="M21 12V12C21 10.6208 21 9.93119 20.6386 9.41476C20.5986 9.35765 20.5557 9.30268 20.51 9.25006C20.0966 8.77415 19.4276 8.6069 18.0896 8.27239L18 8.25C16.5742 7.89355 15.8613 7.71533 15.4398 7.18976C15.4289 7.17617 15.4182 7.16244 15.4076 7.14857C15 6.61217 15 5.87734 15 4.40767V3" stroke="#222222" stroke-width="2" stroke-linecap="round"/>
<path d="M4.5 21C4.5 17.1618 4.5 15.2427 5.42991 13.9206C5.66931 13.5803 5.94858 13.2756 6.26057 13.0144C7.47246 12 9.23164 12 12.75 12H23.25C26.7684 12 28.5275 12 29.7394 13.0144C30.0514 13.2756 30.3307 13.5803 30.5701 13.9206C31.5 15.2427 31.5 17.1618 31.5 21C31.5 24.8382 31.5 26.7573 30.5701 28.0794C30.3307 28.4197 30.0514 28.7244 29.7394 28.9856C28.5275 30 26.7684 30 23.25 30H12.75C9.23164 30 7.47246 30 6.26057 28.9856C5.94858 28.7244 5.66931 28.4197 5.42991 28.0794C4.5 26.7573 4.5 24.8382 4.5 21Z" fill="#379237" stroke="#222222" stroke-width="2"/>
<rect x="19.5" y="21" width="3" height="3" rx="1" fill="#222222"/>
<rect x="24" y="18" width="3" height="3" rx="1" fill="#222222"/>
<path d="M15 21H9" stroke="#222222" stroke-width="2" stroke-linecap="round"/>
<path d="M12 18L12 24" stroke="#222222" stroke-width="2" stroke-linecap="round"/>
</svg>
