<svg width="36" height="36" viewBox="0 0 36 36" fill="none" xmlns="http://www.w3.org/2000/svg">
<path d="M31.5 25.1953V8.16466C31.5 7.84631 31.1785 7.62861 30.8829 7.74685L24.1351 10.446C24.0473 10.4811 23.9506 10.4877 23.8588 10.4647L12.1412 7.53529C12.0494 7.51235 11.9527 7.51891 11.8649 7.55404L4.78287 10.3869C4.61203 10.4552 4.5 10.6207 4.5 10.8047V27.8353C4.5 28.1537 4.82154 28.3714 5.11713 28.2531L11.8649 25.554C11.9527 25.5189 12.0494 25.5123 12.1412 25.5353L23.8588 28.4647C23.9506 28.4877 24.0473 28.4811 24.1351 28.446L31.2171 25.6131C31.388 25.5448 31.5 25.3793 31.5 25.1953Z" fill="white" stroke="black" stroke-width="2" stroke-linejoin="round"/>
<path d="M24 28.5V10.5" stroke="black" stroke-width="2"/>
<path d="M12 25.5L12 7.5" stroke="black" stroke-width="2"/>
</svg>
