<svg width="32" height="36" viewBox="0 0 32 36" fill="none" xmlns="http://www.w3.org/2000/svg">
<path d="M6.66675 18.0002L5.86142 9.84474C5.63075 7.51074 7.76675 5.79624 9.65342 6.80274L25.5788 15.2897C27.6121 16.3727 27.6121 19.6277 25.5788 20.7107L9.65342 29.1992C7.76675 30.2042 5.63075 28.4912 5.86142 26.1572L6.66675 18.0002ZM6.66675 18.0002H16.0001H6.66675Z" fill="#7DC636"/>
<path d="M6.66675 18.0002L5.86142 9.84474C5.63075 7.51074 7.76675 5.79624 9.65342 6.80274L25.5787 15.2897C27.6121 16.3727 27.6121 19.6277 25.5787 20.7107L9.65342 29.1992C7.76675 30.2042 5.63075 28.4912 5.86142 26.1572L6.66675 18.0002ZM6.66675 18.0002H16.0001" stroke="#4F4F4F" stroke-width="2" stroke-linecap="round" stroke-linejoin="round"/>
</svg>
