<svg width="29" height="23" viewBox="0 0 29 23" fill="none" xmlns="http://www.w3.org/2000/svg">
<path d="M28 18.6953V1.66466C28 1.34631 27.6785 1.12861 27.3829 1.24685L20.6351 3.94596C20.5473 3.98109 20.4506 3.98765 20.3588 3.96471L8.64116 1.03529C8.54939 1.01235 8.45273 1.01891 8.3649 1.05404L1.28287 3.88685C1.11203 3.95519 1 4.12066 1 4.30466V21.3353C1 21.6537 1.32154 21.8714 1.61713 21.7531L8.3649 19.054C8.45273 19.0189 8.54939 19.0123 8.64116 19.0353L20.3588 21.9647C20.4506 21.9877 20.5473 21.9811 20.6351 21.946L27.7171 19.1131C27.888 19.0448 28 18.8793 28 18.6953Z" fill="#8BC34A" stroke="white" stroke-width="2" stroke-linejoin="round"/>
<path d="M20.5 22V4" stroke="white" stroke-width="2"/>
<path d="M8.5 19L8.5 1" stroke="white" stroke-width="2"/>
</svg>
