<svg width="26" height="26" viewBox="0 0 26 26" fill="none" xmlns="http://www.w3.org/2000/svg">
<path d="M14.7997 16.523C13.3053 17.5855 11.4663 18.0478 9.64714 17.8183C7.82796 17.5887 6.1614 16.6841 4.97774 15.2838C3.79408 13.8834 3.17972 12.0894 3.2564 10.2574C3.33309 8.42544 4.09523 6.6891 5.39179 5.39255C6.68834 4.096 8.42467 3.33385 10.2567 3.25717C12.0887 3.18048 13.8826 3.79484 15.283 4.9785C16.6834 6.16216 17.588 7.82872 17.8175 9.6479C18.047 11.4671 17.5847 13.3061 16.5222 14.8005L22.3934 20.67C22.5131 20.7816 22.6091 20.9161 22.6758 21.0656C22.7424 21.2151 22.7782 21.3765 22.7811 21.5402C22.784 21.7038 22.7539 21.8663 22.6926 22.0181C22.6313 22.1699 22.54 22.3077 22.4243 22.4234C22.3086 22.5392 22.1707 22.6304 22.019 22.6917C21.8672 22.753 21.7047 22.7831 21.541 22.7802C21.3774 22.7773 21.216 22.7415 21.0665 22.6749C20.917 22.6083 20.7824 22.5122 20.6709 22.3925L14.7997 16.523ZM15.4384 10.5625C15.4384 9.26958 14.9248 8.0296 14.0105 7.11536C13.0963 6.20112 11.8563 5.68751 10.5634 5.68751C9.27044 5.68751 8.03046 6.20112 7.11622 7.11536C6.20198 8.0296 5.68837 9.26958 5.68837 10.5625C5.68837 11.8554 6.20198 13.0954 7.11622 14.0097C8.03046 14.9239 9.27044 15.4375 10.5634 15.4375C11.8563 15.4375 13.0963 14.9239 14.0105 14.0097C14.9248 13.0954 15.4384 11.8554 15.4384 10.5625Z" fill="#666666"/>
</svg>
