<svg width="24" height="24" viewBox="0 0 24 24" fill="none" xmlns="http://www.w3.org/2000/svg">
<path fill-rule="evenodd" clip-rule="evenodd" d="M13.7267 4.72688L16.52 1.93239C17.7945 0.657321 18.4318 0.0197868 19.2208 -0.00685616C19.2657 -0.00837542 19.3108 -0.00837542 19.3558 -0.00685616C20.1447 0.0197868 20.782 0.657322 22.0565 1.93239C23.33 3.20648 23.9668 3.84352 23.9934 4.632C23.9949 4.67696 23.9949 4.72197 23.9934 4.76693C23.9668 5.55541 23.33 6.19245 22.0565 7.46654L19.2912 10.233C16.9883 8.90153 15.074 7.00078 13.7267 4.72688ZM12.2726 6.18162L2.15828 16.3002L2.15826 16.3002C1.7334 16.7253 1.52097 16.9378 1.3813 17.1988C1.24164 17.4599 1.18273 17.7546 1.06492 18.3439L0.0657711 23.3417C-0.000724044 23.6743 -0.0339716 23.8406 0.0606441 23.9352C0.15526 24.0298 0.321562 23.9966 0.654167 23.93L5.64858 22.9307C6.23816 22.8127 6.53295 22.7538 6.79409 22.614C7.05522 22.4741 7.26776 22.2615 7.69282 21.8363L17.8337 11.6911C15.5814 10.2957 13.6814 8.40819 12.2726 6.18162Z" fill="white"/>
</svg>
