<svg width="52" height="52" viewBox="0 0 52 52" fill="none" xmlns="http://www.w3.org/2000/svg">
<path d="M18.6875 27.625H33.3125" stroke="white" stroke-width="3" stroke-linecap="round" stroke-linejoin="round"/>
<path d="M33.3125 33.3124V25.9999C33.3125 24.4276 33.7688 22.889 34.6259 21.5709C35.483 20.2527 36.7042 19.2115 38.1413 18.5737C39.5784 17.9358 41.1697 17.7286 42.7223 17.9772C44.2748 18.2259 45.7219 18.9196 46.888 19.9744C48.054 21.0291 48.889 22.3996 49.2916 23.9195C49.6942 25.4394 49.6472 27.0435 49.1562 28.5372C48.6652 30.0309 47.7514 31.35 46.5255 32.3346C45.2997 33.3193 43.8144 33.927 42.25 34.0843V40.6249C42.25 41.0559 42.0788 41.4692 41.774 41.774C41.4693 42.0787 41.056 42.2499 40.625 42.2499H11.375C10.944 42.2499 10.5307 42.0787 10.226 41.774C9.92121 41.4692 9.75 41.0559 9.75 40.6249V34.0843C8.18555 33.927 6.70034 33.3193 5.47447 32.3346C4.24861 31.35 3.33478 30.0309 2.84379 28.5372C2.35281 27.0435 2.30577 25.4394 2.70839 23.9195C3.11101 22.3996 3.94598 21.0291 5.11205 19.9744C6.27811 18.9196 7.72516 18.2259 9.27771 17.9772C10.8303 17.7286 12.4216 17.9358 13.8587 18.5737C15.2958 19.2115 16.517 20.2527 17.3741 21.5709C18.2312 22.889 18.6875 24.4276 18.6875 25.9999V33.3124" stroke="white" stroke-width="3" stroke-linecap="round" stroke-linejoin="round"/>
<path d="M9.75 17.9156V14.625C9.75 12.9011 10.4348 11.2478 11.6538 10.0288C12.8728 8.80982 14.5261 8.125 16.25 8.125H35.75C37.4739 8.125 39.1272 8.80982 40.3462 10.0288C41.5652 11.2478 42.25 12.9011 42.25 14.625V17.9156" stroke="white" stroke-width="3" stroke-linecap="round" stroke-linejoin="round"/>
</svg>
