<svg width="42" height="42" viewBox="0 0 42 42" fill="none" xmlns="http://www.w3.org/2000/svg">
<path fill-rule="evenodd" clip-rule="evenodd" d="M28.4854 30.1233C28.9699 30.6405 29.2343 31.3257 29.2227 32.0343C29.2112 32.7428 28.9246 33.4191 28.4235 33.9202C27.9224 34.4212 27.2462 34.7078 26.5376 34.7194C25.8291 34.7309 25.1438 34.4665 24.6267 33.9821L13.5754 22.9282C13.0641 22.4163 12.7769 21.7224 12.7769 20.9988C12.7769 20.2753 13.0641 19.5813 13.5754 19.0694L24.6267 8.0182C25.1438 7.53373 25.8291 7.26933 26.5376 7.28088C27.2462 7.29244 27.9224 7.57904 28.4235 8.08012C28.9246 8.58119 29.2112 9.25747 29.2227 9.966C29.2343 10.6745 28.9699 11.3598 28.4854 11.8769L19.3636 20.9988L28.4854 30.1233V30.1233Z" fill="white"/>
</svg>
