<svg width="48" height="42" viewBox="0 0 48 42" fill="none" xmlns="http://www.w3.org/2000/svg">
<path d="M24 7.5V39.5833" stroke="white" stroke-width="4" stroke-linecap="round"/>
<path d="M46 7.5L46 39.5833" stroke="white" stroke-width="4" stroke-linecap="round"/>
<path d="M2 7.5L2 39.5833" stroke="white" stroke-width="4" stroke-linecap="round"/>
<path d="M46 39.5834C46 39.5834 43.5556 33.1667 35 33.1667C26.4444 33.1667 24 39.5834 24 39.5834" stroke="white" stroke-width="4" stroke-linecap="round"/>
<path d="M24 39.5834C24 39.5834 21.5556 33.1667 13 33.1667C4.44444 33.1667 2 39.5834 2 39.5834" stroke="white" stroke-width="4" stroke-linecap="round"/>
<path d="M46 7.5C46 7.5 43.5556 2 35 2C26.4444 2 24 7.5 24 7.5" stroke="white" stroke-width="4" stroke-linecap="round"/>
<path d="M24 7.5C24 7.5 21.5556 2 13 2C4.44444 2 2 7.5 2 7.5" stroke="white" stroke-width="4" stroke-linecap="round"/>
</svg>
