<svg width="48" height="37" viewBox="0 0 48 37" fill="none" xmlns="http://www.w3.org/2000/svg">
<path d="M41.4396 11.4725V7.71875C41.4396 5.67161 40.6264 3.70832 39.1789 2.26077C37.7313 0.813223 35.768 0 33.7209 0H14.2209C12.1737 0 10.2104 0.813223 8.7629 2.26077C7.31535 3.70832 6.50213 5.67161 6.50213 7.71875V11.4725C4.68882 11.7619 3.03808 12.6883 1.84636 14.0854C0.654639 15.4824 0 17.2585 0 19.0948C0 20.931 0.654639 22.7071 1.84636 24.1042C3.03808 25.5012 4.68882 26.4276 6.50213 26.717V33.7188C6.50213 34.473 6.80174 35.1963 7.33504 35.7296C7.86835 36.2629 8.59167 36.5625 9.34588 36.5625H38.5959C39.3501 36.5625 40.0734 36.2629 40.6067 35.7296C41.14 35.1963 41.4396 34.473 41.4396 33.7188V26.717C43.2463 26.421 44.889 25.4924 46.0743 24.0971C47.2596 22.7018 47.9104 20.9306 47.9104 19.0998C47.9104 17.269 47.2596 15.4979 46.0743 14.1025C44.889 12.7072 43.2463 11.7787 41.4396 11.4827V11.4725ZM14.2209 2.4375H33.7209C35.1216 2.4375 36.4649 2.99392 37.4553 3.98434C38.4457 4.97477 39.0021 6.31808 39.0021 7.71875V11.4725C37.1903 11.7643 35.5413 12.6913 34.3504 14.0876C33.1595 15.484 32.5043 17.2585 32.5021 19.0938V19.5H15.4396V19.0938C15.4374 17.2585 14.7822 15.484 13.5913 14.0876C12.4004 12.6913 10.7515 11.7643 8.93963 11.4725V7.71875C8.93963 6.31808 9.49604 4.97477 10.4865 3.98434C11.4769 2.99392 12.8202 2.4375 14.2209 2.4375ZM40.292 24.375H40.2209C39.8976 24.375 39.5877 24.5034 39.3591 24.732C39.1305 24.9605 39.0021 25.2705 39.0021 25.5938V33.7188C39.0021 33.8265 38.9593 33.9298 38.8831 34.006C38.807 34.0822 38.7036 34.125 38.5959 34.125H9.34588C9.23813 34.125 9.1348 34.0822 9.05862 34.006C8.98243 33.9298 8.93963 33.8265 8.93963 33.7188V25.5938C8.93963 25.2705 8.81123 24.9605 8.58267 24.732C8.35411 24.5034 8.04411 24.375 7.72088 24.375H7.64979C6.60839 24.361 5.5944 24.0394 4.7353 23.4506C3.87621 22.8618 3.21037 22.0322 2.82153 21.066C2.43268 20.0998 2.33819 19.0403 2.54992 18.0205C2.76166 17.0008 3.27017 16.0664 4.01152 15.3349C4.75287 14.6034 5.69395 14.1075 6.71643 13.9094C7.7389 13.7113 8.79712 13.82 9.758 14.2217C10.7189 14.6234 11.5395 15.3003 12.1168 16.1672C12.694 17.0341 13.002 18.0523 13.0021 19.0938V27.2188C13.0021 27.542 13.1305 27.852 13.3591 28.0805C13.5877 28.3091 13.8976 28.4375 14.2209 28.4375C14.5441 28.4375 14.8541 28.3091 15.0827 28.0805C15.3112 27.852 15.4396 27.542 15.4396 27.2188V21.9375H32.5021V27.2188C32.5021 27.542 32.6305 27.852 32.8591 28.0805C33.0877 28.3091 33.3976 28.4375 33.7209 28.4375C34.0441 28.4375 34.3541 28.3091 34.5827 28.0805C34.8112 27.852 34.9396 27.542 34.9396 27.2188V19.0938C34.9397 18.0523 35.2478 17.0341 35.825 16.1672C36.4022 15.3003 37.2229 14.6234 38.1838 14.2217C39.1446 13.82 40.2029 13.7113 41.2253 13.9094C42.2478 14.1075 43.1889 14.6034 43.9302 15.3349C44.6716 16.0664 45.1801 17.0008 45.3918 18.0205C45.6036 19.0403 45.5091 20.0998 45.1202 21.066C44.7314 22.0322 44.0656 22.8618 43.2065 23.4506C42.3474 24.0394 41.3334 24.361 40.292 24.375Z" fill="white"/>
</svg>
