<svg width="52" height="52" viewBox="0 0 52 52" fill="none" xmlns="http://www.w3.org/2000/svg">
<path d="M36.5625 40.625C39.7036 40.625 42.25 38.0786 42.25 34.9375C42.25 31.7964 39.7036 29.25 36.5625 29.25C33.4214 29.25 30.875 31.7964 30.875 34.9375C30.875 38.0786 33.4214 40.625 36.5625 40.625Z" stroke="white" stroke-width="3" stroke-linecap="round" stroke-linejoin="round"/>
<path d="M10.5625 47.125C13.7036 47.125 16.25 44.5786 16.25 41.4375C16.25 38.2964 13.7036 35.75 10.5625 35.75C7.42138 35.75 4.875 38.2964 4.875 41.4375C4.875 44.5786 7.42138 47.125 10.5625 47.125Z" stroke="white" stroke-width="3" stroke-linecap="round" stroke-linejoin="round"/>
<path d="M42.25 16.25L16.25 22.75" stroke="white" stroke-width="3" stroke-linecap="round" stroke-linejoin="round"/>
<path d="M16.25 41.4375V13L42.25 6.5V34.9375" stroke="white" stroke-width="3" stroke-linecap="round" stroke-linejoin="round"/>
</svg>
