<svg width="48" height="48" viewBox="0 0 48 48" fill="none" xmlns="http://www.w3.org/2000/svg">
<path d="M10.0002 19.72C13.8399 28.0816 20.6626 34.7089 29.1322 38.304L30.4922 38.91C31.9983 39.5807 33.6927 39.6982 35.2769 39.242C36.8612 38.7857 38.2336 37.785 39.1522 36.416L40.9302 33.768C41.2085 33.3527 41.3211 32.8483 41.2459 32.3541C41.1708 31.86 40.9133 31.4118 40.5242 31.098L34.5002 26.238C34.2904 26.0689 34.0486 25.9439 33.7893 25.8705C33.53 25.7972 33.2585 25.777 32.9912 25.8112C32.7239 25.8454 32.4663 25.9332 32.2338 26.0695C32.0013 26.2057 31.7987 26.3875 31.6382 26.604L29.7742 29.118C24.9894 26.7549 21.1165 22.8812 18.7542 18.096L21.2662 16.232C21.4827 16.0715 21.6645 15.869 21.8008 15.6365C21.937 15.404 22.0249 15.1463 22.0591 14.879C22.0933 14.6117 22.0731 14.3402 21.9997 14.0809C21.9264 13.8216 21.8014 13.5798 21.6322 13.37L16.7722 7.34602C16.4584 6.95692 16.0103 6.69944 15.5161 6.6243C15.0219 6.54915 14.5175 6.66179 14.1022 6.94002L11.4362 8.72802C10.059 9.65157 9.05441 11.034 8.60133 12.6291C8.14825 14.2243 8.27615 15.9284 8.96223 17.438L10.0002 19.72Z" fill="#379237"/>
</svg>
