<svg width="36" height="36" viewBox="0 0 36 36" fill="none" xmlns="http://www.w3.org/2000/svg">
<circle cx="18" cy="18" r="17" stroke="#379237" stroke-width="2"/>
<path fill-rule="evenodd" clip-rule="evenodd" d="M19.875 16.125V9.5625C19.875 9.045 19.455 8.625 18.9375 8.625H17.0625C16.545 8.625 16.125 9.045 16.125 9.5625V16.125H9.5625C9.045 16.125 8.625 16.545 8.625 17.0625V18.9375C8.625 19.455 9.045 19.875 9.5625 19.875H16.125V26.4375C16.125 26.955 16.545 27.375 17.0625 27.375H18.9375C19.455 27.375 19.875 26.955 19.875 26.4375V19.875H26.4375C26.955 19.875 27.375 19.455 27.375 18.9375V17.0625C27.375 16.545 26.955 16.125 26.4375 16.125H19.875Z" fill="#379237"/>
</svg>
